<?xml version="1.0" encoding="utf-8" standalone="no"?>
<!DOCTYPE svg PUBLIC "-//W3C//DTD SVG 1.1//EN"
  "http://www.w3.org/Graphics/SVG/1.1/DTD/svg11.dtd">
<svg xmlns:xlink="http://www.w3.org/1999/xlink" width="720pt" height="720pt" viewBox="0 0 720 720" xmlns="http://www.w3.org/2000/svg" version="1.1">
 <metadata>
  <rdf:RDF xmlns:dc="http://purl.org/dc/elements/1.1/" xmlns:cc="http://creativecommons.org/ns#" xmlns:rdf="http://www.w3.org/1999/02/22-rdf-syntax-ns#">
   <cc:Work>
    <dc:type rdf:resource="http://purl.org/dc/dcmitype/StillImage"/>
    <dc:date>2023-05-27T19:07:59.550745</dc:date>
    <dc:format>image/svg+xml</dc:format>
    <dc:creator>
     <cc:Agent>
      <dc:title>Matplotlib v3.7.1, https://matplotlib.org/</dc:title>
     </cc:Agent>
    </dc:creator>
   </cc:Work>
  </rdf:RDF>
 </metadata>
 <defs>
  <style type="text/css">*{stroke-linejoin: round; stroke-linecap: butt}</style>
 </defs>
 <g id="figure_1">
  <g id="patch_1">
   <path d="M 0 720 
L 720 720 
L 720 0 
L 0 0 
z
" style="fill: #ffffff"/>
  </g>
  <g id="axes_1">
   <g id="patch_2">
    <path d="M 90 640.8 
L 648 640.8 
L 648 86.4 
L 90 86.4 
z
" style="fill: #ffffff"/>
   </g>
   <g id="matplotlib.axis_1">
    <g id="xtick_1">
     <g id="line2d_1">
      <path d="M 115.363636 640.8 
L 115.363636 86.4 
" clip-path="url(#p605354f186)" style="fill: none; stroke: #b0b0b0; stroke-width: 0.8; stroke-linecap: square"/>
     </g>
     <g id="line2d_2">
      <defs>
       <path id="m5045bfe152" d="M 0 0 
L 0 3.5 
" style="stroke: #000000; stroke-width: 0.8"/>
      </defs>
      <g>
       <use xlink:href="#m5045bfe152" x="115.363636" y="640.8" style="stroke: #000000; stroke-width: 0.8"/>
      </g>
     </g>
     <g id="text_1">
      <!-- 50 -->
      <g transform="translate(105.363636 662.096875) scale(0.2 -0.2)">
       <defs>
        <path id="SimSun-35" d="M 1725 2850 
Q 2200 2850 2500 2487 
Q 2800 2125 2800 1525 
Q 2800 850 2487 450 
Q 2175 50 1525 50 
Q 1075 50 725 312 
Q 375 575 375 950 
Q 375 1100 462 1212 
Q 550 1325 700 1325 
Q 850 1325 900 1225 
Q 950 1125 950 1050 
Q 950 900 875 825 
Q 800 725 800 625 
Q 800 425 1037 325 
Q 1275 225 1550 225 
Q 1950 225 2162 550 
Q 2375 875 2375 1475 
Q 2375 1975 2187 2287 
Q 2000 2600 1625 2600 
Q 1350 2600 1150 2500 
Q 950 2400 775 2075 
L 550 2100 
L 675 4375 
L 2725 4375 
L 2650 4000 
L 850 4000 
L 750 2350 
Q 1000 2700 1237 2775 
Q 1475 2850 1725 2850 
z
" transform="scale(0.015625)"/>
        <path id="SimSun-30" d="M 1600 4225 
Q 1250 4225 1012 3687 
Q 775 3150 775 2250 
Q 775 1300 1012 775 
Q 1250 250 1600 250 
Q 1975 250 2187 775 
Q 2400 1300 2400 2250 
Q 2400 3150 2200 3687 
Q 2000 4225 1600 4225 
z
M 1600 50 
Q 1050 50 675 625 
Q 300 1200 300 2250 
Q 300 3225 662 3825 
Q 1025 4425 1600 4425 
Q 2150 4425 2512 3850 
Q 2875 3275 2875 2250 
Q 2875 1225 2512 637 
Q 2150 50 1600 50 
z
" transform="scale(0.015625)"/>
       </defs>
       <use xlink:href="#SimSun-35"/>
       <use xlink:href="#SimSun-30" x="50"/>
      </g>
     </g>
    </g>
    <g id="xtick_2">
     <g id="line2d_3">
      <path d="M 171.727273 640.8 
L 171.727273 86.4 
" clip-path="url(#p605354f186)" style="fill: none; stroke: #b0b0b0; stroke-width: 0.8; stroke-linecap: square"/>
     </g>
     <g id="line2d_4">
      <g>
       <use xlink:href="#m5045bfe152" x="171.727273" y="640.8" style="stroke: #000000; stroke-width: 0.8"/>
      </g>
     </g>
     <g id="text_2">
      <!-- 100 -->
      <g transform="translate(156.727273 662.096875) scale(0.2 -0.2)">
       <defs>
        <path id="SimSun-31" d="M 1825 4450 
L 1825 650 
Q 1825 450 1950 350 
Q 2075 250 2300 250 
L 2550 250 
L 2550 100 
L 725 100 
L 725 250 
L 950 250 
Q 1200 250 1312 350 
Q 1425 450 1425 650 
L 1425 3675 
Q 1425 3775 1362 3837 
Q 1300 3900 1175 3900 
L 725 3900 
L 725 4050 
L 950 4050 
Q 1250 4050 1437 4150 
Q 1625 4250 1725 4450 
L 1825 4450 
z
" transform="scale(0.015625)"/>
       </defs>
       <use xlink:href="#SimSun-31"/>
       <use xlink:href="#SimSun-30" x="50"/>
       <use xlink:href="#SimSun-30" x="100"/>
      </g>
     </g>
    </g>
    <g id="xtick_3">
     <g id="line2d_5">
      <path d="M 228.090909 640.8 
L 228.090909 86.4 
" clip-path="url(#p605354f186)" style="fill: none; stroke: #b0b0b0; stroke-width: 0.8; stroke-linecap: square"/>
     </g>
     <g id="line2d_6">
      <g>
       <use xlink:href="#m5045bfe152" x="228.090909" y="640.8" style="stroke: #000000; stroke-width: 0.8"/>
      </g>
     </g>
     <g id="text_3">
      <!-- 150 -->
      <g transform="translate(213.090909 662.096875) scale(0.2 -0.2)">
       <use xlink:href="#SimSun-31"/>
       <use xlink:href="#SimSun-35" x="50"/>
       <use xlink:href="#SimSun-30" x="100"/>
      </g>
     </g>
    </g>
    <g id="xtick_4">
     <g id="line2d_7">
      <path d="M 284.454545 640.8 
L 284.454545 86.4 
" clip-path="url(#p605354f186)" style="fill: none; stroke: #b0b0b0; stroke-width: 0.8; stroke-linecap: square"/>
     </g>
     <g id="line2d_8">
      <g>
       <use xlink:href="#m5045bfe152" x="284.454545" y="640.8" style="stroke: #000000; stroke-width: 0.8"/>
      </g>
     </g>
     <g id="text_4">
      <!-- 200 -->
      <g transform="translate(269.454545 662.096875) scale(0.2 -0.2)">
       <defs>
        <path id="SimSun-32" d="M 2325 3325 
Q 2325 3775 2125 4012 
Q 1925 4250 1525 4250 
Q 1225 4250 1012 4087 
Q 800 3925 800 3675 
Q 800 3525 900 3425 
Q 975 3325 975 3225 
Q 975 3100 912 3037 
Q 850 2975 725 2975 
Q 575 2975 487 3062 
Q 400 3150 400 3350 
Q 400 3875 775 4150 
Q 1150 4425 1575 4425 
Q 2175 4425 2462 4125 
Q 2750 3825 2750 3375 
Q 2750 3075 2612 2775 
Q 2475 2475 2175 2200 
Q 1450 1500 1062 1062 
Q 675 625 600 475 
L 2075 475 
Q 2300 475 2450 650 
Q 2600 825 2650 1175 
L 2800 1175 
L 2650 100 
L 325 100 
L 325 425 
Q 450 650 737 1000 
Q 1025 1350 1500 1825 
Q 1925 2250 2125 2625 
Q 2325 3000 2325 3325 
z
" transform="scale(0.015625)"/>
       </defs>
       <use xlink:href="#SimSun-32"/>
       <use xlink:href="#SimSun-30" x="50"/>
       <use xlink:href="#SimSun-30" x="100"/>
      </g>
     </g>
    </g>
    <g id="xtick_5">
     <g id="line2d_9">
      <path d="M 340.818182 640.8 
L 340.818182 86.4 
" clip-path="url(#p605354f186)" style="fill: none; stroke: #b0b0b0; stroke-width: 0.8; stroke-linecap: square"/>
     </g>
     <g id="line2d_10">
      <g>
       <use xlink:href="#m5045bfe152" x="340.818182" y="640.8" style="stroke: #000000; stroke-width: 0.8"/>
      </g>
     </g>
     <g id="text_5">
      <!-- 250 -->
      <g transform="translate(325.818182 662.096875) scale(0.2 -0.2)">
       <use xlink:href="#SimSun-32"/>
       <use xlink:href="#SimSun-35" x="50"/>
       <use xlink:href="#SimSun-30" x="100"/>
      </g>
     </g>
    </g>
    <g id="xtick_6">
     <g id="line2d_11">
      <path d="M 397.181818 640.8 
L 397.181818 86.4 
" clip-path="url(#p605354f186)" style="fill: none; stroke: #b0b0b0; stroke-width: 0.8; stroke-linecap: square"/>
     </g>
     <g id="line2d_12">
      <g>
       <use xlink:href="#m5045bfe152" x="397.181818" y="640.8" style="stroke: #000000; stroke-width: 0.8"/>
      </g>
     </g>
     <g id="text_6">
      <!-- 300 -->
      <g transform="translate(382.181818 662.096875) scale(0.2 -0.2)">
       <defs>
        <path id="SimSun-33" d="M 2800 1250 
Q 2800 775 2450 412 
Q 2100 50 1475 50 
Q 1025 50 700 300 
Q 375 550 375 875 
Q 375 1025 475 1137 
Q 575 1250 675 1250 
Q 825 1250 887 1137 
Q 950 1025 950 950 
Q 950 825 900 750 
Q 850 650 850 575 
Q 850 425 1037 325 
Q 1225 225 1450 225 
Q 1900 225 2125 487 
Q 2350 750 2350 1300 
Q 2350 1750 2112 2025 
Q 1875 2300 1225 2300 
L 1225 2475 
Q 1725 2475 1962 2712 
Q 2200 2950 2200 3375 
Q 2200 3725 2012 3987 
Q 1825 4250 1425 4250 
Q 1250 4250 1050 4162 
Q 850 4075 850 3875 
Q 850 3675 900 3625 
Q 950 3575 950 3500 
Q 950 3375 900 3300 
Q 850 3225 725 3225 
Q 625 3225 537 3300 
Q 450 3375 450 3575 
Q 450 3950 775 4187 
Q 1100 4425 1525 4425 
Q 2025 4425 2325 4112 
Q 2625 3800 2625 3450 
Q 2625 3075 2437 2812 
Q 2250 2550 1850 2425 
Q 2400 2225 2600 1900 
Q 2800 1575 2800 1250 
z
" transform="scale(0.015625)"/>
       </defs>
       <use xlink:href="#SimSun-33"/>
       <use xlink:href="#SimSun-30" x="50"/>
       <use xlink:href="#SimSun-30" x="100"/>
      </g>
     </g>
    </g>
    <g id="xtick_7">
     <g id="line2d_13">
      <path d="M 453.545455 640.8 
L 453.545455 86.4 
" clip-path="url(#p605354f186)" style="fill: none; stroke: #b0b0b0; stroke-width: 0.8; stroke-linecap: square"/>
     </g>
     <g id="line2d_14">
      <g>
       <use xlink:href="#m5045bfe152" x="453.545455" y="640.8" style="stroke: #000000; stroke-width: 0.8"/>
      </g>
     </g>
     <g id="text_7">
      <!-- 350 -->
      <g transform="translate(438.545455 662.096875) scale(0.2 -0.2)">
       <use xlink:href="#SimSun-33"/>
       <use xlink:href="#SimSun-35" x="50"/>
       <use xlink:href="#SimSun-30" x="100"/>
      </g>
     </g>
    </g>
    <g id="xtick_8">
     <g id="line2d_15">
      <path d="M 509.909091 640.8 
L 509.909091 86.4 
" clip-path="url(#p605354f186)" style="fill: none; stroke: #b0b0b0; stroke-width: 0.8; stroke-linecap: square"/>
     </g>
     <g id="line2d_16">
      <g>
       <use xlink:href="#m5045bfe152" x="509.909091" y="640.8" style="stroke: #000000; stroke-width: 0.8"/>
      </g>
     </g>
     <g id="text_8">
      <!-- 400 -->
      <g transform="translate(494.909091 662.096875) scale(0.2 -0.2)">
       <defs>
        <path id="SimSun-34" d="M 2300 575 
Q 2300 400 2400 325 
Q 2500 250 2675 250 
L 2900 250 
L 2900 100 
L 1250 100 
L 1250 250 
L 1525 250 
Q 1725 250 1812 325 
Q 1900 400 1900 575 
L 1900 1400 
L 225 1400 
L 225 1525 
L 2050 4425 
L 2300 4425 
L 2300 1550 
L 2975 1550 
L 2975 1400 
L 2300 1400 
L 2300 575 
z
M 1875 3800 
L 450 1550 
L 1900 1550 
L 1900 3800 
L 1875 3800 
z
" transform="scale(0.015625)"/>
       </defs>
       <use xlink:href="#SimSun-34"/>
       <use xlink:href="#SimSun-30" x="50"/>
       <use xlink:href="#SimSun-30" x="100"/>
      </g>
     </g>
    </g>
    <g id="xtick_9">
     <g id="line2d_17">
      <path d="M 566.272727 640.8 
L 566.272727 86.4 
" clip-path="url(#p605354f186)" style="fill: none; stroke: #b0b0b0; stroke-width: 0.8; stroke-linecap: square"/>
     </g>
     <g id="line2d_18">
      <g>
       <use xlink:href="#m5045bfe152" x="566.272727" y="640.8" style="stroke: #000000; stroke-width: 0.8"/>
      </g>
     </g>
     <g id="text_9">
      <!-- 450 -->
      <g transform="translate(551.272727 662.096875) scale(0.2 -0.2)">
       <use xlink:href="#SimSun-34"/>
       <use xlink:href="#SimSun-35" x="50"/>
       <use xlink:href="#SimSun-30" x="100"/>
      </g>
     </g>
    </g>
    <g id="xtick_10">
     <g id="line2d_19">
      <path d="M 622.636364 640.8 
L 622.636364 86.4 
" clip-path="url(#p605354f186)" style="fill: none; stroke: #b0b0b0; stroke-width: 0.8; stroke-linecap: square"/>
     </g>
     <g id="line2d_20">
      <g>
       <use xlink:href="#m5045bfe152" x="622.636364" y="640.8" style="stroke: #000000; stroke-width: 0.8"/>
      </g>
     </g>
     <g id="text_10">
      <!-- 500 -->
      <g transform="translate(607.636364 662.096875) scale(0.2 -0.2)">
       <use xlink:href="#SimSun-35"/>
       <use xlink:href="#SimSun-30" x="50"/>
       <use xlink:href="#SimSun-30" x="100"/>
      </g>
     </g>
    </g>
    <g id="text_11">
     <!-- 流言传播周期(ms) -->
     <g transform="translate(289 684.6125) scale(0.2 -0.2)">
      <defs>
       <path id="SimSun-6d41" d="M 3500 -475 
Q 3525 -100 3525 250 
L 3525 1850 
Q 3525 2150 3500 2425 
L 4075 2175 
L 3850 2000 
L 3850 375 
Q 3850 25 3875 -325 
L 3500 -475 
z
M 2525 2525 
L 3075 2250 
L 2875 2100 
Q 2850 1025 2612 487 
Q 2375 -50 1450 -525 
L 1400 -450 
Q 2100 25 2325 575 
Q 2550 1125 2525 2525 
z
M 4575 150 
L 4575 1800 
Q 4575 2200 4550 2475 
L 5100 2225 
L 4900 2050 
L 4900 250 
Q 4875 -25 5125 -25 
L 5475 -25 
Q 5675 -25 5700 225 
Q 5725 475 5750 1000 
L 5850 1000 
Q 5850 500 5900 300 
Q 5950 100 6125 50 
Q 5975 -300 5575 -300 
L 4950 -300 
Q 4575 -300 4575 150 
z
M 4925 3025 
Q 4700 3425 4475 3700 
L 4525 3750 
Q 5100 3375 5275 3175 
Q 5450 2975 5450 2850 
Q 5450 2725 5362 2600 
Q 5275 2475 5225 2475 
Q 5175 2475 5150 2550 
Q 5075 2725 4975 2925 
Q 4000 2850 3437 2775 
Q 2875 2700 2650 2550 
L 2400 3000 
Q 2625 3025 2950 3375 
Q 3275 3725 3575 4250 
L 2975 4250 
Q 2650 4250 2375 4175 
L 2150 4400 
L 3725 4400 
Q 3675 4800 3275 5175 
L 3300 5250 
Q 3925 5000 3987 4887 
Q 4050 4775 4050 4675 
Q 4050 4550 3925 4400 
L 5125 4400 
L 5475 4725 
L 5900 4250 
L 3700 4250 
L 4075 3975 
L 3775 3925 
Q 3125 3250 2825 3000 
Q 3350 3000 4925 3025 
z
M 2275 3850 
Q 1425 1425 1362 1112 
Q 1300 800 1287 337 
Q 1275 -125 1275 -300 
Q 1275 -375 1175 -375 
Q 1100 -375 937 -312 
Q 775 -250 775 -75 
Q 775 75 850 300 
Q 925 550 925 700 
Q 925 850 812 950 
Q 700 1050 325 1150 
L 325 1250 
Q 775 1225 875 1237 
Q 975 1250 1125 1450 
Q 1275 1650 2175 3900 
L 2275 3850 
z
M 325 3500 
Q 1175 3100 1175 2862 
Q 1175 2625 1087 2525 
Q 1000 2425 975 2425 
Q 900 2425 825 2650 
Q 700 2950 275 3450 
L 325 3500 
z
M 925 4925 
Q 1625 4575 1700 4425 
Q 1775 4275 1775 4225 
Q 1775 4100 1687 3975 
Q 1600 3850 1550 3850 
Q 1450 3850 1375 4075 
Q 1250 4425 875 4850 
L 925 4925 
z
" transform="scale(0.015625)"/>
       <path id="SimSun-8a00" d="M 2725 5225 
Q 3500 4900 3512 4662 
Q 3525 4425 3412 4312 
Q 3300 4200 3275 4200 
Q 3175 4200 3100 4450 
Q 3000 4775 2675 5150 
L 2725 5225 
z
M 525 4100 
L 5075 4100 
L 5425 4450 
L 5925 3950 
L 1225 3950 
Q 950 3950 750 3875 
L 525 4100 
z
M 1375 3225 
L 4350 3225 
L 4700 3575 
L 5200 3075 
L 2075 3075 
Q 1825 3075 1600 3000 
L 1375 3225 
z
M 1350 2250 
L 4450 2250 
L 4775 2575 
L 5250 2100 
L 2050 2100 
Q 1775 2100 1550 2025 
L 1350 2250 
z
M 1550 1625 
L 1950 1400 
L 4475 1400 
L 4700 1650 
L 5100 1325 
L 4875 1175 
Q 4875 -75 4900 -425 
L 4500 -575 
L 4500 -75 
L 1950 -75 
L 1950 -475 
L 1550 -600 
Q 1575 -325 1575 500 
Q 1575 1325 1550 1625 
z
M 1950 1250 
L 1950 75 
L 4500 75 
L 4500 1250 
L 1950 1250 
z
" transform="scale(0.015625)"/>
       <path id="SimSun-4f20" d="M 3700 2500 
Q 3600 2075 3500 1625 
L 4925 1625 
L 5175 1900 
L 5650 1450 
Q 5375 1450 5025 1100 
Q 4675 750 4250 275 
Q 4825 50 4962 -112 
Q 5100 -275 5100 -400 
Q 5100 -450 5062 -562 
Q 5025 -675 4950 -675 
Q 4875 -675 4775 -550 
Q 4550 -325 4075 -12 
Q 3600 300 2975 600 
L 3000 700 
Q 3800 450 4125 325 
L 4925 1475 
L 3500 1475 
L 3300 1250 
L 2950 1575 
L 3150 1725 
Q 3250 2025 3350 2500 
L 2825 2500 
Q 2500 2500 2225 2425 
L 2000 2650 
L 3375 2650 
Q 3475 3150 3575 3650 
L 3100 3650 
Q 2775 3650 2500 3575 
L 2275 3800 
L 3600 3800 
Q 3750 4525 3800 5200 
L 4375 4925 
L 4150 4750 
Q 4050 4300 3950 3800 
L 5075 3800 
L 5350 4075 
L 5775 3650 
L 3925 3650 
Q 3825 3200 3725 2650 
L 5325 2650 
L 5625 2950 
L 6075 2500 
L 3700 2500 
z
M 1775 3175 
L 1775 700 
Q 1775 400 1800 -475 
L 1375 -625 
Q 1400 250 1400 650 
L 1400 3125 
Q 775 2150 275 1675 
L 200 1750 
Q 625 2275 1100 3175 
Q 1575 4075 1875 5200 
L 2425 4850 
Q 2225 4750 2100 4475 
Q 1950 4175 1650 3550 
L 2000 3350 
L 1775 3175 
z
" transform="scale(0.015625)"/>
       <path id="SimSun-64ad" d="M 5425 1600 
Q 5425 50 5450 -400 
L 5100 -525 
L 5100 -175 
L 3100 -175 
L 3100 -500 
L 2750 -625 
Q 2775 25 2775 2000 
Q 2425 1750 2025 1600 
L 2000 1675 
Q 2575 2025 2950 2412 
Q 3325 2800 3625 3250 
L 2700 3250 
L 2475 3200 
L 2275 3400 
L 3950 3400 
L 3950 4575 
Q 3400 4525 2575 4475 
L 2550 4575 
Q 3525 4700 4150 4850 
Q 4775 5000 5175 5200 
L 5500 4775 
Q 5275 4775 4275 4625 
L 4275 3400 
L 4500 3400 
Q 4625 3600 4775 3962 
Q 4925 4325 4975 4575 
L 5475 4250 
L 5250 4150 
Q 4900 3700 4650 3400 
L 5350 3400 
L 5650 3700 
L 6100 3250 
L 4425 3250 
Q 4725 2875 5175 2612 
Q 5625 2350 6125 2325 
L 6125 2250 
Q 5700 2175 5650 1975 
Q 5250 2150 4912 2462 
Q 4575 2775 4275 3250 
Q 4275 2450 4300 2125 
L 3925 1950 
Q 3950 2500 3950 3150 
Q 3725 2825 3375 2487 
Q 3025 2150 2800 2025 
L 3100 1850 
L 5050 1850 
L 5275 2075 
L 5625 1750 
L 5425 1600 
z
M 3100 1700 
L 3100 925 
L 3950 925 
L 3950 1700 
L 3100 1700 
z
M 4275 1700 
L 4275 925 
L 5100 925 
L 5100 1700 
L 4275 1700 
z
M 3100 775 
L 3100 -25 
L 3950 -25 
L 3950 775 
L 3100 775 
z
M 4275 775 
L 4275 -25 
L 5100 -25 
L 5100 775 
L 4275 775 
z
M 2925 4425 
Q 3375 4150 3450 4025 
Q 3525 3900 3525 3850 
Q 3525 3750 3437 3625 
Q 3350 3500 3325 3500 
Q 3250 3500 3200 3700 
Q 3100 3975 2875 4375 
L 2925 4425 
z
M 1725 2350 
L 2425 2825 
L 2475 2725 
L 1725 2075 
L 1725 -75 
Q 1725 -450 1225 -650 
Q 1200 -375 525 -100 
L 525 0 
Q 1175 -150 1287 -112 
Q 1400 -75 1400 125 
L 1400 1875 
Q 825 1425 575 1150 
L 275 1525 
Q 725 1725 1400 2175 
L 1400 3600 
L 775 3600 
L 550 3525 
L 325 3750 
L 1400 3750 
Q 1400 4825 1375 5200 
L 1925 4950 
L 1725 4775 
L 1725 3750 
L 2025 3750 
L 2275 4000 
L 2650 3600 
L 1725 3600 
L 1725 2350 
z
" transform="scale(0.015625)"/>
       <path id="SimSun-5468" d="M 275 -500 
Q 800 275 1000 1025 
Q 1200 1775 1200 2925 
Q 1200 4075 1175 5100 
L 1550 4875 
L 5025 4875 
L 5225 5125 
L 5650 4825 
L 5425 4625 
L 5425 275 
Q 5475 -300 4875 -525 
Q 4875 -225 4125 -25 
L 4125 100 
Q 4650 25 4875 37 
Q 5100 50 5100 350 
L 5100 4725 
L 1550 4725 
Q 1550 3000 1525 2300 
Q 1500 1600 1250 862 
Q 1000 125 350 -550 
L 275 -500 
z
M 3100 3650 
Q 3100 4225 3075 4575 
L 3625 4325 
L 3425 4175 
L 3425 3650 
L 3950 3650 
L 4225 3925 
L 4650 3500 
L 3425 3500 
L 3425 2750 
L 4200 2750 
L 4500 3050 
L 4950 2600 
L 2475 2600 
Q 2150 2600 1875 2525 
L 1650 2750 
L 3100 2750 
L 3100 3500 
L 2800 3500 
Q 2475 3500 2200 3425 
L 1975 3650 
L 3100 3650 
z
M 2250 200 
Q 2275 600 2275 1212 
Q 2275 1825 2250 2250 
L 2625 2025 
L 3975 2025 
L 4150 2275 
L 4525 1950 
L 4325 1800 
Q 4325 850 4350 450 
L 4000 300 
L 4000 700 
L 2600 700 
L 2600 350 
L 2250 200 
z
M 2600 1875 
L 2600 850 
L 4000 850 
L 4000 1875 
L 2600 1875 
z
" transform="scale(0.015625)"/>
       <path id="SimSun-671f" d="M 1575 3975 
L 1575 3325 
L 2600 3325 
L 2600 3975 
L 1575 3975 
z
M 1575 3175 
L 1575 2425 
L 2600 2425 
L 2600 3175 
L 1575 3175 
z
M 1575 2275 
L 1575 1500 
L 2600 1500 
L 2600 2275 
L 1575 2275 
z
M 1225 4125 
Q 1225 4750 1200 5175 
L 1775 4850 
L 1575 4700 
L 1575 4125 
L 2600 4125 
Q 2600 4575 2575 5175 
L 3150 4875 
L 2950 4725 
L 2950 4125 
L 3025 4125 
L 3300 4400 
L 3725 3975 
L 2950 3975 
L 2950 1500 
L 2975 1500 
L 3250 1775 
L 3675 1350 
L 950 1350 
L 600 1300 
L 400 1500 
L 1225 1500 
L 1225 3975 
L 1000 3975 
L 650 3925 
L 450 4125 
L 1225 4125 
z
M 1550 1250 
L 2000 850 
L 1775 775 
Q 1100 -25 375 -475 
L 325 -400 
Q 700 -50 1012 350 
Q 1325 750 1550 1250 
z
M 2375 1150 
Q 2975 825 3075 700 
Q 3175 575 3175 475 
Q 3175 350 3100 225 
Q 3025 100 2975 100 
Q 2900 100 2825 300 
Q 2700 625 2325 1100 
L 2375 1150 
z
M 4225 4550 
L 4225 3300 
L 5450 3300 
L 5450 4550 
L 4225 4550 
z
M 4225 3150 
Q 4225 2450 4200 1875 
L 5450 1875 
L 5450 3150 
L 4225 3150 
z
M 4550 50 
Q 5025 -25 5237 -37 
Q 5450 -50 5450 225 
L 5450 1725 
L 4200 1725 
Q 4150 850 3737 300 
Q 3325 -250 2700 -625 
L 2650 -550 
Q 3075 -200 3350 212 
Q 3625 625 3750 1175 
Q 3875 1725 3875 3000 
Q 3875 4275 3850 4925 
L 4225 4700 
L 5400 4700 
L 5575 4950 
L 5975 4650 
L 5800 4475 
L 5800 125 
Q 5825 -375 5250 -575 
Q 5250 -250 4550 -50 
L 4550 50 
z
" transform="scale(0.015625)"/>
       <path id="SimSun-28" d="M 2900 5025 
Q 2325 4425 2037 3737 
Q 1750 3050 1750 2300 
Q 1750 1525 2037 850 
Q 2325 175 2900 -425 
L 2775 -550 
Q 2075 75 1725 787 
Q 1375 1500 1375 2300 
Q 1375 3075 1725 3787 
Q 2075 4500 2775 5150 
L 2900 5025 
z
" transform="scale(0.015625)"/>
       <path id="SimSun-6d" d="M 175 2900 
Q 300 2900 425 2925 
Q 550 2950 625 3000 
L 675 3000 
L 675 2575 
Q 800 2775 950 2862 
Q 1100 2950 1275 2950 
Q 1500 2950 1625 2862 
Q 1750 2775 1775 2575 
Q 1900 2775 2062 2862 
Q 2225 2950 2400 2950 
Q 2700 2950 2812 2775 
Q 2925 2600 2925 2325 
L 2925 425 
Q 2925 325 2975 287 
Q 3025 250 3125 250 
L 3175 250 
L 3175 100 
L 2325 100 
L 2325 250 
L 2375 250 
Q 2475 250 2525 287 
Q 2575 325 2575 425 
L 2575 2300 
Q 2575 2575 2512 2662 
Q 2450 2750 2325 2750 
Q 2150 2750 2012 2625 
Q 1875 2500 1800 2275 
L 1800 425 
Q 1800 325 1850 287 
Q 1900 250 2000 250 
L 2050 250 
L 2050 100 
L 1200 100 
L 1200 250 
L 1250 250 
Q 1350 250 1400 287 
Q 1450 325 1450 425 
L 1450 2300 
Q 1450 2525 1400 2637 
Q 1350 2750 1200 2750 
Q 1025 2750 887 2625 
Q 750 2500 675 2250 
L 675 425 
Q 675 325 725 287 
Q 775 250 875 250 
L 925 250 
L 925 100 
L 75 100 
L 75 250 
L 125 250 
Q 225 250 275 287 
Q 325 325 325 425 
L 325 2600 
Q 325 2675 300 2712 
Q 275 2750 200 2750 
L 100 2750 
L 100 2900 
L 175 2900 
z
" transform="scale(0.015625)"/>
       <path id="SimSun-73" d="M 625 2175 
Q 625 2550 912 2750 
Q 1200 2950 1600 2950 
Q 1825 2950 2025 2900 
Q 2225 2825 2300 2825 
Q 2375 2825 2425 2850 
Q 2475 2875 2550 2950 
L 2650 2125 
L 2500 2100 
Q 2400 2425 2162 2612 
Q 1925 2800 1625 2800 
Q 1300 2800 1112 2675 
Q 925 2550 925 2325 
Q 925 2125 1012 2012 
Q 1100 1900 1325 1850 
Q 1500 1775 1775 1700 
Q 2025 1600 2250 1500 
Q 2450 1400 2587 1237 
Q 2725 1075 2725 875 
Q 2725 500 2462 287 
Q 2200 75 1700 75 
Q 1375 75 1225 150 
Q 1050 200 950 200 
Q 875 200 787 162 
Q 700 125 600 75 
L 525 1000 
L 675 1025 
Q 750 625 1000 425 
Q 1250 225 1700 225 
Q 2050 225 2237 350 
Q 2425 475 2425 725 
Q 2425 900 2325 1012 
Q 2225 1125 2125 1175 
Q 1875 1275 1575 1400 
Q 1275 1500 1050 1600 
Q 825 1700 725 1850 
Q 625 2000 625 2175 
z
" transform="scale(0.015625)"/>
       <path id="SimSun-29" d="M 275 5025 
L 400 5150 
Q 1100 4500 1450 3787 
Q 1800 3075 1800 2300 
Q 1800 1500 1450 787 
Q 1100 75 400 -550 
L 275 -425 
Q 850 175 1137 850 
Q 1425 1525 1425 2300 
Q 1425 3050 1137 3737 
Q 850 4425 275 5025 
z
" transform="scale(0.015625)"/>
      </defs>
      <use xlink:href="#SimSun-6d41"/>
      <use xlink:href="#SimSun-8a00" x="100"/>
      <use xlink:href="#SimSun-4f20" x="200"/>
      <use xlink:href="#SimSun-64ad" x="300"/>
      <use xlink:href="#SimSun-5468" x="400"/>
      <use xlink:href="#SimSun-671f" x="500"/>
      <use xlink:href="#SimSun-28" x="600"/>
      <use xlink:href="#SimSun-6d" x="650"/>
      <use xlink:href="#SimSun-73" x="700"/>
      <use xlink:href="#SimSun-29" x="750"/>
     </g>
    </g>
   </g>
   <g id="matplotlib.axis_2">
    <g id="ytick_1">
     <g id="line2d_21">
      <path d="M 90 578.583105 
L 648 578.583105 
" clip-path="url(#p605354f186)" style="fill: none; stroke: #b0b0b0; stroke-width: 0.8; stroke-linecap: square"/>
     </g>
     <g id="line2d_22">
      <defs>
       <path id="m9ed1d9734b" d="M 0 0 
L -3.5 0 
" style="stroke: #000000; stroke-width: 0.8"/>
      </defs>
      <g>
       <use xlink:href="#m9ed1d9734b" x="90" y="578.583105" style="stroke: #000000; stroke-width: 0.8"/>
      </g>
     </g>
     <g id="text_12">
      <!-- 0.6 -->
      <g transform="translate(53 585.731542) scale(0.2 -0.2)">
       <defs>
        <path id="SimSun-2e" d="M 800 25 
Q 650 25 537 125 
Q 425 225 425 400 
Q 425 575 537 675 
Q 650 775 800 775 
Q 950 775 1062 662 
Q 1175 550 1175 400 
Q 1175 225 1062 125 
Q 950 25 800 25 
z
" transform="scale(0.015625)"/>
        <path id="SimSun-36" d="M 775 1800 
Q 775 1050 1037 637 
Q 1300 225 1675 225 
Q 2050 225 2250 500 
Q 2450 775 2450 1525 
Q 2450 2025 2237 2300 
Q 2025 2575 1725 2575 
Q 1450 2575 1212 2412 
Q 975 2250 775 1800 
z
M 1750 2825 
Q 2350 2825 2612 2425 
Q 2875 2025 2875 1525 
Q 2875 775 2512 412 
Q 2150 50 1675 50 
Q 1000 50 650 562 
Q 300 1075 300 2050 
Q 300 3200 725 3812 
Q 1150 4425 1875 4425 
Q 2225 4425 2437 4225 
Q 2650 4025 2650 3875 
Q 2650 3725 2587 3650 
Q 2525 3575 2375 3575 
Q 2250 3575 2187 3637 
Q 2125 3700 2125 3825 
Q 2125 3875 2150 3925 
Q 2150 3975 2150 4025 
Q 2150 4125 2075 4187 
Q 2000 4250 1800 4250 
Q 1375 4250 1075 3862 
Q 775 3475 775 2175 
Q 925 2500 1187 2662 
Q 1450 2825 1750 2825 
z
" transform="scale(0.015625)"/>
       </defs>
       <use xlink:href="#SimSun-30"/>
       <use xlink:href="#SimSun-2e" x="50"/>
       <use xlink:href="#SimSun-36" x="100"/>
      </g>
     </g>
    </g>
    <g id="ytick_2">
     <g id="line2d_23">
      <path d="M 90 508.631465 
L 648 508.631465 
" clip-path="url(#p605354f186)" style="fill: none; stroke: #b0b0b0; stroke-width: 0.8; stroke-linecap: square"/>
     </g>
     <g id="line2d_24">
      <g>
       <use xlink:href="#m9ed1d9734b" x="90" y="508.631465" style="stroke: #000000; stroke-width: 0.8"/>
      </g>
     </g>
     <g id="text_13">
      <!-- 0.8 -->
      <g transform="translate(53 515.779902) scale(0.2 -0.2)">
       <defs>
        <path id="SimSun-38" d="M 625 1125 
Q 625 725 887 475 
Q 1150 225 1550 225 
Q 2025 225 2237 475 
Q 2450 725 2450 1100 
Q 2450 1425 2150 1725 
Q 1850 2025 1250 2275 
Q 950 2075 787 1775 
Q 625 1475 625 1125 
z
M 2825 1175 
Q 2825 700 2475 375 
Q 2125 50 1550 50 
Q 1025 50 650 375 
Q 275 700 275 1125 
Q 275 1550 487 1850 
Q 700 2150 1100 2375 
Q 750 2550 562 2812 
Q 375 3075 375 3400 
Q 375 3825 700 4125 
Q 1025 4425 1600 4425 
Q 2125 4425 2450 4125 
Q 2775 3825 2775 3400 
Q 2775 3100 2587 2837 
Q 2400 2575 2000 2375 
Q 2425 2125 2625 1825 
Q 2825 1525 2825 1175 
z
M 2425 3375 
Q 2425 3725 2225 3987 
Q 2025 4250 1600 4250 
Q 1125 4250 925 4000 
Q 725 3750 725 3475 
Q 725 3200 1012 2937 
Q 1300 2675 1825 2475 
Q 2125 2625 2275 2850 
Q 2425 3075 2425 3375 
z
" transform="scale(0.015625)"/>
       </defs>
       <use xlink:href="#SimSun-30"/>
       <use xlink:href="#SimSun-2e" x="50"/>
       <use xlink:href="#SimSun-38" x="100"/>
      </g>
     </g>
    </g>
    <g id="ytick_3">
     <g id="line2d_25">
      <path d="M 90 438.679825 
L 648 438.679825 
" clip-path="url(#p605354f186)" style="fill: none; stroke: #b0b0b0; stroke-width: 0.8; stroke-linecap: square"/>
     </g>
     <g id="line2d_26">
      <g>
       <use xlink:href="#m9ed1d9734b" x="90" y="438.679825" style="stroke: #000000; stroke-width: 0.8"/>
      </g>
     </g>
     <g id="text_14">
      <!-- 1.0 -->
      <g transform="translate(53 445.828262) scale(0.2 -0.2)">
       <use xlink:href="#SimSun-31"/>
       <use xlink:href="#SimSun-2e" x="50"/>
       <use xlink:href="#SimSun-30" x="100"/>
      </g>
     </g>
    </g>
    <g id="ytick_4">
     <g id="line2d_27">
      <path d="M 90 368.728185 
L 648 368.728185 
" clip-path="url(#p605354f186)" style="fill: none; stroke: #b0b0b0; stroke-width: 0.8; stroke-linecap: square"/>
     </g>
     <g id="line2d_28">
      <g>
       <use xlink:href="#m9ed1d9734b" x="90" y="368.728185" style="stroke: #000000; stroke-width: 0.8"/>
      </g>
     </g>
     <g id="text_15">
      <!-- 1.2 -->
      <g transform="translate(53 375.876623) scale(0.2 -0.2)">
       <use xlink:href="#SimSun-31"/>
       <use xlink:href="#SimSun-2e" x="50"/>
       <use xlink:href="#SimSun-32" x="100"/>
      </g>
     </g>
    </g>
    <g id="ytick_5">
     <g id="line2d_29">
      <path d="M 90 298.776545 
L 648 298.776545 
" clip-path="url(#p605354f186)" style="fill: none; stroke: #b0b0b0; stroke-width: 0.8; stroke-linecap: square"/>
     </g>
     <g id="line2d_30">
      <g>
       <use xlink:href="#m9ed1d9734b" x="90" y="298.776545" style="stroke: #000000; stroke-width: 0.8"/>
      </g>
     </g>
     <g id="text_16">
      <!-- 1.4 -->
      <g transform="translate(53 305.924983) scale(0.2 -0.2)">
       <use xlink:href="#SimSun-31"/>
       <use xlink:href="#SimSun-2e" x="50"/>
       <use xlink:href="#SimSun-34" x="100"/>
      </g>
     </g>
    </g>
    <g id="ytick_6">
     <g id="line2d_31">
      <path d="M 90 228.824906 
L 648 228.824906 
" clip-path="url(#p605354f186)" style="fill: none; stroke: #b0b0b0; stroke-width: 0.8; stroke-linecap: square"/>
     </g>
     <g id="line2d_32">
      <g>
       <use xlink:href="#m9ed1d9734b" x="90" y="228.824906" style="stroke: #000000; stroke-width: 0.8"/>
      </g>
     </g>
     <g id="text_17">
      <!-- 1.6 -->
      <g transform="translate(53 235.973343) scale(0.2 -0.2)">
       <use xlink:href="#SimSun-31"/>
       <use xlink:href="#SimSun-2e" x="50"/>
       <use xlink:href="#SimSun-36" x="100"/>
      </g>
     </g>
    </g>
    <g id="ytick_7">
     <g id="line2d_33">
      <path d="M 90 158.873266 
L 648 158.873266 
" clip-path="url(#p605354f186)" style="fill: none; stroke: #b0b0b0; stroke-width: 0.8; stroke-linecap: square"/>
     </g>
     <g id="line2d_34">
      <g>
       <use xlink:href="#m9ed1d9734b" x="90" y="158.873266" style="stroke: #000000; stroke-width: 0.8"/>
      </g>
     </g>
     <g id="text_18">
      <!-- 1.8 -->
      <g transform="translate(53 166.021703) scale(0.2 -0.2)">
       <use xlink:href="#SimSun-31"/>
       <use xlink:href="#SimSun-2e" x="50"/>
       <use xlink:href="#SimSun-38" x="100"/>
      </g>
     </g>
    </g>
    <g id="ytick_8">
     <g id="line2d_35">
      <path d="M 90 88.921626 
L 648 88.921626 
" clip-path="url(#p605354f186)" style="fill: none; stroke: #b0b0b0; stroke-width: 0.8; stroke-linecap: square"/>
     </g>
     <g id="line2d_36">
      <g>
       <use xlink:href="#m9ed1d9734b" x="90" y="88.921626" style="stroke: #000000; stroke-width: 0.8"/>
      </g>
     </g>
     <g id="text_19">
      <!-- 2.0 -->
      <g transform="translate(53 96.070063) scale(0.2 -0.2)">
       <use xlink:href="#SimSun-32"/>
       <use xlink:href="#SimSun-2e" x="50"/>
       <use xlink:href="#SimSun-30" x="100"/>
      </g>
     </g>
    </g>
    <g id="text_20">
     <!-- 时延(s) -->
     <g transform="translate(46.421875 398.6) rotate(-90) scale(0.2 -0.2)">
      <defs>
       <path id="SimSun-65f6" d="M 4500 3600 
Q 4500 4575 4475 5225 
L 5100 4900 
L 4850 4725 
L 4850 3600 
L 5225 3600 
L 5550 3925 
L 6025 3450 
L 4850 3450 
L 4850 100 
Q 4850 -375 4300 -575 
Q 4275 -200 3475 -25 
L 3475 100 
Q 4150 0 4325 25 
Q 4500 50 4500 325 
L 4500 3450 
L 3200 3450 
Q 2875 3450 2600 3375 
L 2375 3600 
L 4500 3600 
z
M 2875 2825 
Q 3525 2375 3637 2200 
Q 3750 2025 3750 1925 
Q 3750 1800 3637 1637 
Q 3525 1475 3475 1475 
Q 3400 1475 3325 1775 
Q 3200 2225 2800 2750 
L 2875 2825 
z
M 925 4150 
L 925 2650 
L 1950 2650 
L 1950 4150 
L 925 4150 
z
M 925 2500 
L 925 900 
L 1950 900 
L 1950 2500 
L 925 2500 
z
M 2300 2000 
Q 2300 800 2325 450 
L 1950 250 
L 1950 750 
L 925 750 
L 925 225 
L 550 25 
Q 575 825 575 2425 
Q 575 4025 550 4500 
L 950 4300 
L 1900 4300 
L 2100 4550 
L 2500 4225 
L 2300 4050 
L 2300 2000 
z
" transform="scale(0.015625)"/>
       <path id="SimSun-5ef6" d="M 500 4450 
L 1800 4450 
L 2050 4700 
L 2450 4300 
Q 2225 4275 1900 3775 
Q 1575 3250 1250 2750 
L 1975 2750 
L 2150 3000 
L 2525 2675 
L 2325 2525 
Q 2175 1550 1875 750 
Q 2500 250 3112 175 
Q 3725 100 4350 100 
Q 5175 100 6025 175 
L 6025 75 
Q 5525 -25 5525 -350 
Q 3800 -350 3100 -187 
Q 2400 -25 1725 525 
Q 1175 -150 325 -525 
L 275 -450 
Q 1025 0 1500 750 
Q 1175 1175 825 2025 
L 900 2050 
Q 1275 1350 1625 1000 
Q 1925 1775 2000 2600 
L 1200 2600 
L 1050 2425 
L 725 2725 
Q 1025 2925 1362 3462 
Q 1700 4000 1825 4300 
L 1000 4300 
L 700 4250 
L 500 4450 
z
M 2800 4200 
Q 3675 4300 4412 4500 
Q 5150 4700 5350 4850 
L 5775 4400 
Q 5500 4400 5162 4350 
Q 4825 4300 4500 4250 
L 4500 2800 
L 5050 2800 
L 5350 3100 
L 5800 2650 
L 4500 2650 
L 4500 1025 
L 5200 1025 
L 5500 1325 
L 5950 875 
L 3425 875 
L 3225 650 
L 2900 975 
L 3075 1125 
L 3075 2275 
Q 3075 2775 3050 3200 
L 3575 2950 
L 3400 2825 
L 3400 1025 
L 4175 1025 
L 4175 4225 
Q 3575 4150 2825 4100 
L 2800 4200 
z
" transform="scale(0.015625)"/>
      </defs>
      <use xlink:href="#SimSun-65f6"/>
      <use xlink:href="#SimSun-5ef6" x="100"/>
      <use xlink:href="#SimSun-28" x="200"/>
      <use xlink:href="#SimSun-73" x="250"/>
      <use xlink:href="#SimSun-29" x="300"/>
     </g>
    </g>
   </g>
   <g id="line2d_37">
    <path d="M 115.363636 615.6 
L 171.727273 602.130919 
L 228.090909 599.726248 
L 284.454545 572.294126 
L 340.818182 563.206017 
L 397.181818 530.622164 
L 453.545455 538.820481 
L 509.909091 527.814453 
L 566.272727 469.923335 
L 622.636364 432.015363 
" clip-path="url(#p605354f186)" style="fill: none; stroke: #ff0000; stroke-width: 1.5; stroke-linecap: square"/>
    <defs>
     <path id="m8e8fdea990" d="M 0 1.5 
C 0.397805 1.5 0.77937 1.341951 1.06066 1.06066 
C 1.341951 0.77937 1.5 0.397805 1.5 0 
C 1.5 -0.397805 1.341951 -0.77937 1.06066 -1.06066 
C 0.77937 -1.341951 0.397805 -1.5 0 -1.5 
C -0.397805 -1.5 -0.77937 -1.341951 -1.06066 -1.06066 
C -1.341951 -0.77937 -1.5 -0.397805 -1.5 0 
C -1.5 0.397805 -1.341951 0.77937 -1.06066 1.06066 
C -0.77937 1.341951 -0.397805 1.5 0 1.5 
z
" style="stroke: #ff0000"/>
    </defs>
    <g clip-path="url(#p605354f186)">
     <use xlink:href="#m8e8fdea990" x="115.363636" y="615.6" style="fill: #ff0000; stroke: #ff0000"/>
     <use xlink:href="#m8e8fdea990" x="171.727273" y="602.130919" style="fill: #ff0000; stroke: #ff0000"/>
     <use xlink:href="#m8e8fdea990" x="228.090909" y="599.726248" style="fill: #ff0000; stroke: #ff0000"/>
     <use xlink:href="#m8e8fdea990" x="284.454545" y="572.294126" style="fill: #ff0000; stroke: #ff0000"/>
     <use xlink:href="#m8e8fdea990" x="340.818182" y="563.206017" style="fill: #ff0000; stroke: #ff0000"/>
     <use xlink:href="#m8e8fdea990" x="397.181818" y="530.622164" style="fill: #ff0000; stroke: #ff0000"/>
     <use xlink:href="#m8e8fdea990" x="453.545455" y="538.820481" style="fill: #ff0000; stroke: #ff0000"/>
     <use xlink:href="#m8e8fdea990" x="509.909091" y="527.814453" style="fill: #ff0000; stroke: #ff0000"/>
     <use xlink:href="#m8e8fdea990" x="566.272727" y="469.923335" style="fill: #ff0000; stroke: #ff0000"/>
     <use xlink:href="#m8e8fdea990" x="622.636364" y="432.015363" style="fill: #ff0000; stroke: #ff0000"/>
    </g>
   </g>
   <g id="line2d_38">
    <path d="M 115.363636 443.494739 
L 171.727273 445.71385 
L 228.090909 448.911337 
L 284.454545 461.296633 
L 340.818182 428.743389 
L 397.181818 435.976016 
L 453.545455 390.497487 
L 509.909091 381.001598 
L 566.272727 340.880436 
L 622.636364 258.88316 
" clip-path="url(#p605354f186)" style="fill: none; stroke-dasharray: 1.5,2.475; stroke-dashoffset: 0; stroke: #0000ff; stroke-width: 1.5"/>
    <defs>
     <path id="m86e3a6ec42" d="M 0 1.5 
C 0.397805 1.5 0.77937 1.341951 1.06066 1.06066 
C 1.341951 0.77937 1.5 0.397805 1.5 0 
C 1.5 -0.397805 1.341951 -0.77937 1.06066 -1.06066 
C 0.77937 -1.341951 0.397805 -1.5 0 -1.5 
C -0.397805 -1.5 -0.77937 -1.341951 -1.06066 -1.06066 
C -1.341951 -0.77937 -1.5 -0.397805 -1.5 0 
C -1.5 0.397805 -1.341951 0.77937 -1.06066 1.06066 
C -0.77937 1.341951 -0.397805 1.5 0 1.5 
z
" style="stroke: #0000ff"/>
    </defs>
    <g clip-path="url(#p605354f186)">
     <use xlink:href="#m86e3a6ec42" x="115.363636" y="443.494739" style="fill: #0000ff; stroke: #0000ff"/>
     <use xlink:href="#m86e3a6ec42" x="171.727273" y="445.71385" style="fill: #0000ff; stroke: #0000ff"/>
     <use xlink:href="#m86e3a6ec42" x="228.090909" y="448.911337" style="fill: #0000ff; stroke: #0000ff"/>
     <use xlink:href="#m86e3a6ec42" x="284.454545" y="461.296633" style="fill: #0000ff; stroke: #0000ff"/>
     <use xlink:href="#m86e3a6ec42" x="340.818182" y="428.743389" style="fill: #0000ff; stroke: #0000ff"/>
     <use xlink:href="#m86e3a6ec42" x="397.181818" y="435.976016" style="fill: #0000ff; stroke: #0000ff"/>
     <use xlink:href="#m86e3a6ec42" x="453.545455" y="390.497487" style="fill: #0000ff; stroke: #0000ff"/>
     <use xlink:href="#m86e3a6ec42" x="509.909091" y="381.001598" style="fill: #0000ff; stroke: #0000ff"/>
     <use xlink:href="#m86e3a6ec42" x="566.272727" y="340.880436" style="fill: #0000ff; stroke: #0000ff"/>
     <use xlink:href="#m86e3a6ec42" x="622.636364" y="258.88316" style="fill: #0000ff; stroke: #0000ff"/>
    </g>
   </g>
   <g id="line2d_39">
    <path d="M 115.363636 310.270865 
L 171.727273 381.329742 
L 228.090909 404.300494 
L 284.454545 407.507896 
L 340.818182 372.762414 
L 397.181818 337.862418 
L 453.545455 297.514968 
L 509.909091 267.784111 
L 566.272727 238.890032 
L 622.636364 207.644604 
" clip-path="url(#p605354f186)" style="fill: none; stroke-dasharray: 5.55,2.4; stroke-dashoffset: 0; stroke: #008000; stroke-width: 1.5"/>
    <defs>
     <path id="m8067860cda" d="M 0 1.5 
C 0.397805 1.5 0.77937 1.341951 1.06066 1.06066 
C 1.341951 0.77937 1.5 0.397805 1.5 0 
C 1.5 -0.397805 1.341951 -0.77937 1.06066 -1.06066 
C 0.77937 -1.341951 0.397805 -1.5 0 -1.5 
C -0.397805 -1.5 -0.77937 -1.341951 -1.06066 -1.06066 
C -1.341951 -0.77937 -1.5 -0.397805 -1.5 0 
C -1.5 0.397805 -1.341951 0.77937 -1.06066 1.06066 
C -0.77937 1.341951 -0.397805 1.5 0 1.5 
z
" style="stroke: #008000"/>
    </defs>
    <g clip-path="url(#p605354f186)">
     <use xlink:href="#m8067860cda" x="115.363636" y="310.270865" style="fill: #008000; stroke: #008000"/>
     <use xlink:href="#m8067860cda" x="171.727273" y="381.329742" style="fill: #008000; stroke: #008000"/>
     <use xlink:href="#m8067860cda" x="228.090909" y="404.300494" style="fill: #008000; stroke: #008000"/>
     <use xlink:href="#m8067860cda" x="284.454545" y="407.507896" style="fill: #008000; stroke: #008000"/>
     <use xlink:href="#m8067860cda" x="340.818182" y="372.762414" style="fill: #008000; stroke: #008000"/>
     <use xlink:href="#m8067860cda" x="397.181818" y="337.862418" style="fill: #008000; stroke: #008000"/>
     <use xlink:href="#m8067860cda" x="453.545455" y="297.514968" style="fill: #008000; stroke: #008000"/>
     <use xlink:href="#m8067860cda" x="509.909091" y="267.784111" style="fill: #008000; stroke: #008000"/>
     <use xlink:href="#m8067860cda" x="566.272727" y="238.890032" style="fill: #008000; stroke: #008000"/>
     <use xlink:href="#m8067860cda" x="622.636364" y="207.644604" style="fill: #008000; stroke: #008000"/>
    </g>
   </g>
   <g id="line2d_40">
    <path d="M 115.363636 111.6 
L 171.727273 224.089002 
L 228.090909 258.489681 
L 284.454545 286.46519 
L 340.818182 351.539941 
L 397.181818 300.295895 
L 453.545455 268.917766 
L 509.909091 256.220305 
L 566.272727 175.910851 
L 622.636364 119.796607 
" clip-path="url(#p605354f186)" style="fill: none; stroke-dasharray: 9.6,2.4,1.5,2.4; stroke-dashoffset: 0; stroke: #00bfbf; stroke-width: 1.5"/>
    <defs>
     <path id="me8683491c0" d="M 0 1.5 
C 0.397805 1.5 0.77937 1.341951 1.06066 1.06066 
C 1.341951 0.77937 1.5 0.397805 1.5 0 
C 1.5 -0.397805 1.341951 -0.77937 1.06066 -1.06066 
C 0.77937 -1.341951 0.397805 -1.5 0 -1.5 
C -0.397805 -1.5 -0.77937 -1.341951 -1.06066 -1.06066 
C -1.341951 -0.77937 -1.5 -0.397805 -1.5 0 
C -1.5 0.397805 -1.341951 0.77937 -1.06066 1.06066 
C -0.77937 1.341951 -0.397805 1.5 0 1.5 
z
" style="stroke: #00bfbf"/>
    </defs>
    <g clip-path="url(#p605354f186)">
     <use xlink:href="#me8683491c0" x="115.363636" y="111.6" style="fill: #00bfbf; stroke: #00bfbf"/>
     <use xlink:href="#me8683491c0" x="171.727273" y="224.089002" style="fill: #00bfbf; stroke: #00bfbf"/>
     <use xlink:href="#me8683491c0" x="228.090909" y="258.489681" style="fill: #00bfbf; stroke: #00bfbf"/>
     <use xlink:href="#me8683491c0" x="284.454545" y="286.46519" style="fill: #00bfbf; stroke: #00bfbf"/>
     <use xlink:href="#me8683491c0" x="340.818182" y="351.539941" style="fill: #00bfbf; stroke: #00bfbf"/>
     <use xlink:href="#me8683491c0" x="397.181818" y="300.295895" style="fill: #00bfbf; stroke: #00bfbf"/>
     <use xlink:href="#me8683491c0" x="453.545455" y="268.917766" style="fill: #00bfbf; stroke: #00bfbf"/>
     <use xlink:href="#me8683491c0" x="509.909091" y="256.220305" style="fill: #00bfbf; stroke: #00bfbf"/>
     <use xlink:href="#me8683491c0" x="566.272727" y="175.910851" style="fill: #00bfbf; stroke: #00bfbf"/>
     <use xlink:href="#me8683491c0" x="622.636364" y="119.796607" style="fill: #00bfbf; stroke: #00bfbf"/>
    </g>
   </g>
   <g id="patch_3">
    <path d="M 90 640.8 
L 90 86.4 
" style="fill: none; stroke: #000000; stroke-width: 0.8; stroke-linejoin: miter; stroke-linecap: square"/>
   </g>
   <g id="patch_4">
    <path d="M 648 640.8 
L 648 86.4 
" style="fill: none; stroke: #000000; stroke-width: 0.8; stroke-linejoin: miter; stroke-linecap: square"/>
   </g>
   <g id="patch_5">
    <path d="M 90 640.8 
L 648 640.8 
" style="fill: none; stroke: #000000; stroke-width: 0.8; stroke-linejoin: miter; stroke-linecap: square"/>
   </g>
   <g id="patch_6">
    <path d="M 90 86.4 
L 648 86.4 
" style="fill: none; stroke: #000000; stroke-width: 0.8; stroke-linejoin: miter; stroke-linecap: square"/>
   </g>
   <g id="legend_1">
    <g id="patch_7">
     <path d="M 530 630.8 
L 634 630.8 
Q 638 630.8 638 626.8 
L 638 521.3 
Q 638 517.3 634 517.3 
L 530 517.3 
Q 526 517.3 526 521.3 
L 526 626.8 
Q 526 630.8 530 630.8 
z
" style="fill: #ffffff; opacity: 0.8; stroke: #cccccc; stroke-linejoin: miter"/>
    </g>
    <g id="line2d_41">
     <path d="M 534 532.596875 
L 554 532.596875 
L 574 532.596875 
" style="fill: none; stroke: #ff0000; stroke-width: 1.5; stroke-linecap: square"/>
     <g>
      <use xlink:href="#m8e8fdea990" x="554" y="532.596875" style="fill: #ff0000; stroke: #ff0000"/>
     </g>
    </g>
    <g id="text_21">
     <!-- N=4 -->
     <g transform="translate(590 539.596875) scale(0.2 -0.2)">
      <defs>
       <path id="SimSun-4e" d="M 2525 1100 
L 2575 1100 
L 2575 4025 
Q 2575 4125 2525 4175 
Q 2475 4225 2350 4225 
L 2150 4225 
L 2150 4375 
L 3150 4375 
L 3150 4225 
L 2950 4225 
Q 2850 4225 2787 4175 
Q 2725 4125 2725 4025 
L 2725 100 
L 2575 100 
L 675 3825 
L 625 3825 
L 625 450 
Q 625 350 687 300 
Q 750 250 850 250 
L 1050 250 
L 1050 100 
L 50 100 
L 50 250 
L 250 250 
Q 375 250 425 300 
Q 475 350 475 450 
L 475 4025 
Q 475 4125 425 4175 
Q 375 4225 250 4225 
L 100 4225 
L 100 4375 
L 825 4375 
L 2525 1100 
z
" transform="scale(0.015625)"/>
       <path id="SimSun-3d" d="M 200 2825 
L 200 3050 
L 2975 3050 
L 2975 2825 
L 200 2825 
z
M 200 1550 
L 200 1775 
L 2975 1775 
L 2975 1550 
L 200 1550 
z
" transform="scale(0.015625)"/>
      </defs>
      <use xlink:href="#SimSun-4e"/>
      <use xlink:href="#SimSun-3d" x="50"/>
      <use xlink:href="#SimSun-34" x="100"/>
     </g>
    </g>
    <g id="line2d_42">
     <path d="M 534 559.471875 
L 554 559.471875 
L 574 559.471875 
" style="fill: none; stroke-dasharray: 1.5,2.475; stroke-dashoffset: 0; stroke: #0000ff; stroke-width: 1.5"/>
     <g>
      <use xlink:href="#m86e3a6ec42" x="554" y="559.471875" style="fill: #0000ff; stroke: #0000ff"/>
     </g>
    </g>
    <g id="text_22">
     <!-- N=10 -->
     <g transform="translate(590 566.471875) scale(0.2 -0.2)">
      <use xlink:href="#SimSun-4e"/>
      <use xlink:href="#SimSun-3d" x="50"/>
      <use xlink:href="#SimSun-31" x="100"/>
      <use xlink:href="#SimSun-30" x="150"/>
     </g>
    </g>
    <g id="line2d_43">
     <path d="M 534 586.346875 
L 554 586.346875 
L 574 586.346875 
" style="fill: none; stroke-dasharray: 5.55,2.4; stroke-dashoffset: 0; stroke: #008000; stroke-width: 1.5"/>
     <g>
      <use xlink:href="#m8067860cda" x="554" y="586.346875" style="fill: #008000; stroke: #008000"/>
     </g>
    </g>
    <g id="text_23">
     <!-- N=20 -->
     <g transform="translate(590 593.346875) scale(0.2 -0.2)">
      <use xlink:href="#SimSun-4e"/>
      <use xlink:href="#SimSun-3d" x="50"/>
      <use xlink:href="#SimSun-32" x="100"/>
      <use xlink:href="#SimSun-30" x="150"/>
     </g>
    </g>
    <g id="line2d_44">
     <path d="M 534 613.221875 
L 554 613.221875 
L 574 613.221875 
" style="fill: none; stroke-dasharray: 9.6,2.4,1.5,2.4; stroke-dashoffset: 0; stroke: #00bfbf; stroke-width: 1.5"/>
     <g>
      <use xlink:href="#me8683491c0" x="554" y="613.221875" style="fill: #00bfbf; stroke: #00bfbf"/>
     </g>
    </g>
    <g id="text_24">
     <!-- N=30 -->
     <g transform="translate(590 620.221875) scale(0.2 -0.2)">
      <use xlink:href="#SimSun-4e"/>
      <use xlink:href="#SimSun-3d" x="50"/>
      <use xlink:href="#SimSun-33" x="100"/>
      <use xlink:href="#SimSun-30" x="150"/>
     </g>
    </g>
   </g>
  </g>
 </g>
 <defs>
  <clipPath id="p605354f186">
   <rect x="90" y="86.4" width="558" height="554.4"/>
  </clipPath>
 </defs>
</svg>
