<?xml version="1.0" encoding="utf-8" standalone="no"?>
<!DOCTYPE svg PUBLIC "-//W3C//DTD SVG 1.1//EN"
  "http://www.w3.org/Graphics/SVG/1.1/DTD/svg11.dtd">
<svg xmlns:xlink="http://www.w3.org/1999/xlink" width="720pt" height="720pt" viewBox="0 0 720 720" xmlns="http://www.w3.org/2000/svg" version="1.1">
 <metadata>
  <rdf:RDF xmlns:dc="http://purl.org/dc/elements/1.1/" xmlns:cc="http://creativecommons.org/ns#" xmlns:rdf="http://www.w3.org/1999/02/22-rdf-syntax-ns#">
   <cc:Work>
    <dc:type rdf:resource="http://purl.org/dc/dcmitype/StillImage"/>
    <dc:date>2023-05-27T18:58:18.125392</dc:date>
    <dc:format>image/svg+xml</dc:format>
    <dc:creator>
     <cc:Agent>
      <dc:title>Matplotlib v3.7.1, https://matplotlib.org/</dc:title>
     </cc:Agent>
    </dc:creator>
   </cc:Work>
  </rdf:RDF>
 </metadata>
 <defs>
  <style type="text/css">*{stroke-linejoin: round; stroke-linecap: butt}</style>
 </defs>
 <g id="figure_1">
  <g id="patch_1">
   <path d="M 0 720 
L 720 720 
L 720 0 
L 0 0 
z
" style="fill: #ffffff"/>
  </g>
  <g id="axes_1">
   <g id="patch_2">
    <path d="M 90 640.8 
L 648 640.8 
L 648 86.4 
L 90 86.4 
z
" style="fill: #ffffff"/>
   </g>
   <g id="patch_3">
    <path d="M 115.363636 640.8 
L 161.479339 640.8 
L 161.479339 112.8 
L 115.363636 112.8 
z
" clip-path="url(#p11e1837515)" style="fill: #1f77b4"/>
   </g>
   <g id="patch_4">
    <path d="M 207.595041 640.8 
L 253.710744 640.8 
L 253.710744 128.543119 
L 207.595041 128.543119 
z
" clip-path="url(#p11e1837515)" style="fill: #1f77b4"/>
   </g>
   <g id="patch_5">
    <path d="M 299.826446 640.8 
L 345.942149 640.8 
L 345.942149 120.066055 
L 299.826446 120.066055 
z
" clip-path="url(#p11e1837515)" style="fill: #1f77b4"/>
   </g>
   <g id="patch_6">
    <path d="M 392.057851 640.8 
L 438.173554 640.8 
L 438.173554 121.277064 
L 392.057851 121.277064 
z
" clip-path="url(#p11e1837515)" style="fill: #1f77b4"/>
   </g>
   <g id="patch_7">
    <path d="M 484.289256 640.8 
L 530.404959 640.8 
L 530.404959 187.882569 
L 484.289256 187.882569 
z
" clip-path="url(#p11e1837515)" style="fill: #1f77b4"/>
   </g>
   <g id="patch_8">
    <path d="M 576.520661 640.8 
L 622.636364 640.8 
L 622.636364 201.20367 
L 576.520661 201.20367 
z
" clip-path="url(#p11e1837515)" style="fill: #1f77b4"/>
   </g>
   <g id="matplotlib.axis_1">
    <g id="xtick_1">
     <g id="line2d_1">
      <defs>
       <path id="ma418034a14" d="M 0 0 
L 0 3.5 
" style="stroke: #000000; stroke-width: 0.8"/>
      </defs>
      <g>
       <use xlink:href="#ma418034a14" x="138.421488" y="640.8" style="stroke: #000000; stroke-width: 0.8"/>
      </g>
     </g>
     <g id="text_1">
      <!-- 1 -->
      <g transform="translate(133.421488 662.096875) scale(0.2 -0.2)">
       <defs>
        <path id="SimSun-31" d="M 1825 4450 
L 1825 650 
Q 1825 450 1950 350 
Q 2075 250 2300 250 
L 2550 250 
L 2550 100 
L 725 100 
L 725 250 
L 950 250 
Q 1200 250 1312 350 
Q 1425 450 1425 650 
L 1425 3675 
Q 1425 3775 1362 3837 
Q 1300 3900 1175 3900 
L 725 3900 
L 725 4050 
L 950 4050 
Q 1250 4050 1437 4150 
Q 1625 4250 1725 4450 
L 1825 4450 
z
" transform="scale(0.015625)"/>
       </defs>
       <use xlink:href="#SimSun-31"/>
      </g>
     </g>
    </g>
    <g id="xtick_2">
     <g id="line2d_2">
      <g>
       <use xlink:href="#ma418034a14" x="230.652893" y="640.8" style="stroke: #000000; stroke-width: 0.8"/>
      </g>
     </g>
     <g id="text_2">
      <!-- 2 -->
      <g transform="translate(225.652893 662.096875) scale(0.2 -0.2)">
       <defs>
        <path id="SimSun-32" d="M 2325 3325 
Q 2325 3775 2125 4012 
Q 1925 4250 1525 4250 
Q 1225 4250 1012 4087 
Q 800 3925 800 3675 
Q 800 3525 900 3425 
Q 975 3325 975 3225 
Q 975 3100 912 3037 
Q 850 2975 725 2975 
Q 575 2975 487 3062 
Q 400 3150 400 3350 
Q 400 3875 775 4150 
Q 1150 4425 1575 4425 
Q 2175 4425 2462 4125 
Q 2750 3825 2750 3375 
Q 2750 3075 2612 2775 
Q 2475 2475 2175 2200 
Q 1450 1500 1062 1062 
Q 675 625 600 475 
L 2075 475 
Q 2300 475 2450 650 
Q 2600 825 2650 1175 
L 2800 1175 
L 2650 100 
L 325 100 
L 325 425 
Q 450 650 737 1000 
Q 1025 1350 1500 1825 
Q 1925 2250 2125 2625 
Q 2325 3000 2325 3325 
z
" transform="scale(0.015625)"/>
       </defs>
       <use xlink:href="#SimSun-32"/>
      </g>
     </g>
    </g>
    <g id="xtick_3">
     <g id="line2d_3">
      <g>
       <use xlink:href="#ma418034a14" x="322.884298" y="640.8" style="stroke: #000000; stroke-width: 0.8"/>
      </g>
     </g>
     <g id="text_3">
      <!-- 3 -->
      <g transform="translate(317.884298 662.096875) scale(0.2 -0.2)">
       <defs>
        <path id="SimSun-33" d="M 2800 1250 
Q 2800 775 2450 412 
Q 2100 50 1475 50 
Q 1025 50 700 300 
Q 375 550 375 875 
Q 375 1025 475 1137 
Q 575 1250 675 1250 
Q 825 1250 887 1137 
Q 950 1025 950 950 
Q 950 825 900 750 
Q 850 650 850 575 
Q 850 425 1037 325 
Q 1225 225 1450 225 
Q 1900 225 2125 487 
Q 2350 750 2350 1300 
Q 2350 1750 2112 2025 
Q 1875 2300 1225 2300 
L 1225 2475 
Q 1725 2475 1962 2712 
Q 2200 2950 2200 3375 
Q 2200 3725 2012 3987 
Q 1825 4250 1425 4250 
Q 1250 4250 1050 4162 
Q 850 4075 850 3875 
Q 850 3675 900 3625 
Q 950 3575 950 3500 
Q 950 3375 900 3300 
Q 850 3225 725 3225 
Q 625 3225 537 3300 
Q 450 3375 450 3575 
Q 450 3950 775 4187 
Q 1100 4425 1525 4425 
Q 2025 4425 2325 4112 
Q 2625 3800 2625 3450 
Q 2625 3075 2437 2812 
Q 2250 2550 1850 2425 
Q 2400 2225 2600 1900 
Q 2800 1575 2800 1250 
z
" transform="scale(0.015625)"/>
       </defs>
       <use xlink:href="#SimSun-33"/>
      </g>
     </g>
    </g>
    <g id="xtick_4">
     <g id="line2d_4">
      <g>
       <use xlink:href="#ma418034a14" x="415.115702" y="640.8" style="stroke: #000000; stroke-width: 0.8"/>
      </g>
     </g>
     <g id="text_4">
      <!-- 4 -->
      <g transform="translate(410.115702 662.096875) scale(0.2 -0.2)">
       <defs>
        <path id="SimSun-34" d="M 2300 575 
Q 2300 400 2400 325 
Q 2500 250 2675 250 
L 2900 250 
L 2900 100 
L 1250 100 
L 1250 250 
L 1525 250 
Q 1725 250 1812 325 
Q 1900 400 1900 575 
L 1900 1400 
L 225 1400 
L 225 1525 
L 2050 4425 
L 2300 4425 
L 2300 1550 
L 2975 1550 
L 2975 1400 
L 2300 1400 
L 2300 575 
z
M 1875 3800 
L 450 1550 
L 1900 1550 
L 1900 3800 
L 1875 3800 
z
" transform="scale(0.015625)"/>
       </defs>
       <use xlink:href="#SimSun-34"/>
      </g>
     </g>
    </g>
    <g id="xtick_5">
     <g id="line2d_5">
      <g>
       <use xlink:href="#ma418034a14" x="507.347107" y="640.8" style="stroke: #000000; stroke-width: 0.8"/>
      </g>
     </g>
     <g id="text_5">
      <!-- 5 -->
      <g transform="translate(502.347107 662.096875) scale(0.2 -0.2)">
       <defs>
        <path id="SimSun-35" d="M 1725 2850 
Q 2200 2850 2500 2487 
Q 2800 2125 2800 1525 
Q 2800 850 2487 450 
Q 2175 50 1525 50 
Q 1075 50 725 312 
Q 375 575 375 950 
Q 375 1100 462 1212 
Q 550 1325 700 1325 
Q 850 1325 900 1225 
Q 950 1125 950 1050 
Q 950 900 875 825 
Q 800 725 800 625 
Q 800 425 1037 325 
Q 1275 225 1550 225 
Q 1950 225 2162 550 
Q 2375 875 2375 1475 
Q 2375 1975 2187 2287 
Q 2000 2600 1625 2600 
Q 1350 2600 1150 2500 
Q 950 2400 775 2075 
L 550 2100 
L 675 4375 
L 2725 4375 
L 2650 4000 
L 850 4000 
L 750 2350 
Q 1000 2700 1237 2775 
Q 1475 2850 1725 2850 
z
" transform="scale(0.015625)"/>
       </defs>
       <use xlink:href="#SimSun-35"/>
      </g>
     </g>
    </g>
    <g id="xtick_6">
     <g id="line2d_6">
      <g>
       <use xlink:href="#ma418034a14" x="599.578512" y="640.8" style="stroke: #000000; stroke-width: 0.8"/>
      </g>
     </g>
     <g id="text_6">
      <!-- 6 -->
      <g transform="translate(594.578512 662.096875) scale(0.2 -0.2)">
       <defs>
        <path id="SimSun-36" d="M 775 1800 
Q 775 1050 1037 637 
Q 1300 225 1675 225 
Q 2050 225 2250 500 
Q 2450 775 2450 1525 
Q 2450 2025 2237 2300 
Q 2025 2575 1725 2575 
Q 1450 2575 1212 2412 
Q 975 2250 775 1800 
z
M 1750 2825 
Q 2350 2825 2612 2425 
Q 2875 2025 2875 1525 
Q 2875 775 2512 412 
Q 2150 50 1675 50 
Q 1000 50 650 562 
Q 300 1075 300 2050 
Q 300 3200 725 3812 
Q 1150 4425 1875 4425 
Q 2225 4425 2437 4225 
Q 2650 4025 2650 3875 
Q 2650 3725 2587 3650 
Q 2525 3575 2375 3575 
Q 2250 3575 2187 3637 
Q 2125 3700 2125 3825 
Q 2125 3875 2150 3925 
Q 2150 3975 2150 4025 
Q 2150 4125 2075 4187 
Q 2000 4250 1800 4250 
Q 1375 4250 1075 3862 
Q 775 3475 775 2175 
Q 925 2500 1187 2662 
Q 1450 2825 1750 2825 
z
" transform="scale(0.015625)"/>
       </defs>
       <use xlink:href="#SimSun-36"/>
      </g>
     </g>
    </g>
   </g>
   <g id="matplotlib.axis_2">
    <g id="ytick_1">
     <g id="line2d_7">
      <defs>
       <path id="mbfbfd1e055" d="M 0 0 
L -3.5 0 
" style="stroke: #000000; stroke-width: 0.8"/>
      </defs>
      <g>
       <use xlink:href="#mbfbfd1e055" x="90" y="640.8" style="stroke: #000000; stroke-width: 0.8"/>
      </g>
     </g>
     <g id="text_7">
      <!-- 0 -->
      <g transform="translate(73 647.948437) scale(0.2 -0.2)">
       <defs>
        <path id="SimSun-30" d="M 1600 4225 
Q 1250 4225 1012 3687 
Q 775 3150 775 2250 
Q 775 1300 1012 775 
Q 1250 250 1600 250 
Q 1975 250 2187 775 
Q 2400 1300 2400 2250 
Q 2400 3150 2200 3687 
Q 2000 4225 1600 4225 
z
M 1600 50 
Q 1050 50 675 625 
Q 300 1200 300 2250 
Q 300 3225 662 3825 
Q 1025 4425 1600 4425 
Q 2150 4425 2512 3850 
Q 2875 3275 2875 2250 
Q 2875 1225 2512 637 
Q 2150 50 1600 50 
z
" transform="scale(0.015625)"/>
       </defs>
       <use xlink:href="#SimSun-30"/>
      </g>
     </g>
    </g>
    <g id="ytick_2">
     <g id="line2d_8">
      <g>
       <use xlink:href="#mbfbfd1e055" x="90" y="519.699083" style="stroke: #000000; stroke-width: 0.8"/>
      </g>
     </g>
     <g id="text_8">
      <!-- 5 -->
      <g transform="translate(73 526.84752) scale(0.2 -0.2)">
       <use xlink:href="#SimSun-35"/>
      </g>
     </g>
    </g>
    <g id="ytick_3">
     <g id="line2d_9">
      <g>
       <use xlink:href="#mbfbfd1e055" x="90" y="398.598165" style="stroke: #000000; stroke-width: 0.8"/>
      </g>
     </g>
     <g id="text_9">
      <!-- 10 -->
      <g transform="translate(63 405.746603) scale(0.2 -0.2)">
       <use xlink:href="#SimSun-31"/>
       <use xlink:href="#SimSun-30" x="50"/>
      </g>
     </g>
    </g>
    <g id="ytick_4">
     <g id="line2d_10">
      <g>
       <use xlink:href="#mbfbfd1e055" x="90" y="277.497248" style="stroke: #000000; stroke-width: 0.8"/>
      </g>
     </g>
     <g id="text_10">
      <!-- 15 -->
      <g transform="translate(63 284.645685) scale(0.2 -0.2)">
       <use xlink:href="#SimSun-31"/>
       <use xlink:href="#SimSun-35" x="50"/>
      </g>
     </g>
    </g>
    <g id="ytick_5">
     <g id="line2d_11">
      <g>
       <use xlink:href="#mbfbfd1e055" x="90" y="156.39633" style="stroke: #000000; stroke-width: 0.8"/>
      </g>
     </g>
     <g id="text_11">
      <!-- 20 -->
      <g transform="translate(63 163.544768) scale(0.2 -0.2)">
       <use xlink:href="#SimSun-32"/>
       <use xlink:href="#SimSun-30" x="50"/>
      </g>
     </g>
    </g>
    <g id="text_12">
     <!-- 内存使用率(MB) -->
     <g transform="translate(56.421875 433.6) rotate(-90) scale(0.2 -0.2)">
      <defs>
       <path id="SimSun-5185" d="M 1400 3625 
L 1400 975 
Q 2075 1350 2500 2025 
Q 2925 2700 2975 3625 
L 1400 3625 
z
M 1025 -650 
Q 1050 0 1050 425 
L 1050 2850 
Q 1050 3675 1025 4025 
L 1400 3775 
L 2975 3775 
Q 3000 4475 2975 5250 
L 3625 4950 
L 3375 4775 
Q 3375 4275 3350 3775 
L 4875 3775 
L 5100 4050 
L 5525 3725 
L 5300 3550 
L 5300 200 
Q 5325 -375 4725 -600 
Q 4700 -200 3825 -25 
L 3825 75 
Q 4500 25 4737 25 
Q 4975 25 4950 475 
L 4950 3625 
L 3350 3625 
Q 3300 3100 3200 2700 
Q 4525 1950 4562 1750 
Q 4600 1550 4600 1425 
Q 4600 1225 4525 1112 
Q 4450 1000 4425 1000 
Q 4350 1000 4275 1225 
Q 4125 1550 3812 1912 
Q 3500 2275 3150 2575 
Q 2900 1950 2425 1512 
Q 1950 1075 1400 850 
L 1400 -450 
L 1025 -650 
z
" transform="scale(0.015625)"/>
       <path id="SimSun-5b58" d="M 1975 2725 
Q 1975 250 2000 -400 
L 1600 -650 
Q 1625 25 1625 2275 
Q 1150 1675 300 1100 
L 225 1175 
Q 1025 1875 1625 2750 
Q 1625 3000 1600 3200 
L 1850 3075 
Q 2175 3575 2475 4250 
L 1025 4250 
L 650 4200 
L 450 4400 
L 2525 4400 
Q 2725 4875 2775 5250 
L 3375 4950 
Q 3175 4850 3100 4712 
Q 3025 4575 2950 4400 
L 5050 4400 
L 5425 4775 
L 5950 4250 
L 2900 4250 
Q 2500 3475 1975 2725 
z
M 3050 0 
Q 3550 -50 3737 -50 
Q 3925 -50 3925 250 
L 3925 1475 
L 2825 1475 
L 2450 1425 
L 2250 1625 
L 3925 1625 
Q 3925 2275 3900 2675 
L 4175 2525 
L 4875 3250 
L 3075 3250 
L 2725 3200 
L 2525 3400 
L 4900 3400 
L 5150 3650 
L 5575 3175 
Q 5225 3125 4912 2912 
Q 4600 2700 4275 2450 
L 4475 2325 
L 4275 2175 
L 4275 1625 
L 5325 1625 
L 5650 1950 
L 6125 1475 
L 4275 1475 
L 4275 -50 
Q 4275 -400 3750 -625 
Q 3725 -325 3050 -125 
L 3050 0 
z
" transform="scale(0.015625)"/>
       <path id="SimSun-4f7f" d="M 2875 3150 
L 2875 2100 
L 3825 2100 
Q 3850 2825 3850 3150 
L 2875 3150 
z
M 4175 3150 
Q 4175 2800 4150 2100 
L 5150 2100 
L 5150 3150 
L 4175 3150 
z
M 5475 3100 
L 5475 2425 
Q 5475 2100 5500 1800 
L 5150 1675 
L 5150 1950 
L 4150 1950 
Q 4125 1175 3875 600 
Q 4275 275 4875 75 
Q 5475 -125 6075 -150 
L 6075 -250 
Q 5700 -300 5600 -575 
Q 4525 -325 3725 350 
Q 3425 25 2925 -225 
Q 2425 -475 1875 -650 
L 1825 -550 
Q 2400 -325 2850 -25 
Q 3300 275 3500 575 
Q 3200 925 2825 1650 
L 2900 1700 
Q 3325 1100 3625 825 
Q 3800 1300 3825 1950 
L 2875 1950 
L 2875 1825 
L 2525 1675 
Q 2550 2075 2550 2562 
Q 2550 3050 2525 3500 
L 2875 3300 
L 3850 3300 
L 3850 4025 
L 2975 4025 
Q 2650 4025 2375 3950 
L 2150 4175 
L 3850 4175 
L 3850 4525 
Q 3850 4775 3825 5225 
L 4350 5000 
L 4175 4825 
L 4175 4175 
L 5300 4175 
L 5600 4475 
L 6050 4025 
L 4175 4025 
L 4175 3300 
L 5100 3300 
L 5275 3525 
L 5650 3225 
L 5475 3100 
z
M 1675 3175 
L 1675 -450 
L 1325 -625 
Q 1350 -75 1350 350 
L 1350 3200 
Q 900 2475 350 1900 
L 275 1950 
Q 700 2525 1112 3400 
Q 1525 4275 1800 5250 
L 2325 4925 
L 2125 4800 
Q 1725 3925 1500 3525 
L 1875 3325 
L 1675 3175 
z
" transform="scale(0.015625)"/>
       <path id="SimSun-7528" d="M 3400 3150 
L 3400 1825 
L 5075 1825 
L 5075 3150 
L 3400 3150 
z
M 4075 100 
Q 4725 50 4900 62 
Q 5075 75 5075 400 
L 5075 1675 
L 3400 1675 
Q 3400 75 3425 -225 
L 3050 -400 
Q 3075 1025 3075 1675 
L 1425 1675 
Q 1250 350 375 -600 
L 300 -550 
Q 775 225 950 1025 
Q 1125 1825 1125 3225 
Q 1125 4625 1100 5075 
L 1475 4825 
L 5050 4825 
L 5225 5100 
L 5625 4800 
L 5425 4600 
L 5425 225 
Q 5450 -400 4875 -575 
Q 4825 -150 4075 -25 
L 4075 100 
z
M 1475 4675 
L 1475 3300 
L 3075 3300 
L 3075 4675 
L 1475 4675 
z
M 3400 4675 
L 3400 3300 
L 5075 3300 
L 5075 4675 
L 3400 4675 
z
M 1475 3150 
Q 1450 2100 1425 1825 
L 3075 1825 
L 3075 3150 
L 1475 3150 
z
" transform="scale(0.015625)"/>
       <path id="SimSun-7387" d="M 875 3725 
L 925 3800 
Q 1375 3650 1550 3525 
Q 1725 3400 1725 3250 
Q 1725 3175 1662 3025 
Q 1600 2875 1550 2875 
Q 1500 2875 1425 3050 
Q 1275 3325 875 3725 
z
M 550 1850 
Q 875 1925 2000 2575 
L 2050 2500 
Q 1675 2225 1337 1937 
Q 1000 1650 875 1425 
L 550 1850 
z
M 5200 3450 
Q 4800 3150 4275 2800 
L 4225 2875 
Q 4775 3400 5050 3925 
L 5450 3525 
L 5200 3450 
z
M 4325 2500 
L 4350 2575 
Q 5225 2350 5375 2212 
Q 5525 2075 5525 1900 
Q 5525 1775 5487 1662 
Q 5450 1550 5400 1550 
Q 5325 1550 5200 1800 
Q 4975 2150 4325 2500 
z
M 3150 3900 
Q 2500 3300 2300 3150 
Q 2800 3150 3400 3175 
Q 3700 3500 3850 3825 
L 4250 3450 
Q 4050 3400 3450 2825 
Q 2850 2250 2475 1950 
Q 3150 1975 3850 2000 
Q 3750 2175 3550 2450 
L 3600 2500 
Q 4050 2250 4200 2100 
Q 4350 1950 4350 1850 
Q 4350 1775 4250 1625 
Q 4150 1475 4100 1475 
Q 4075 1475 4050 1550 
Q 4000 1700 3900 1900 
Q 3650 1875 3075 1800 
L 3500 1550 
L 3325 1425 
L 3325 975 
L 5325 975 
L 5650 1300 
L 6100 825 
L 3325 825 
Q 3325 -275 3350 -525 
L 2975 -650 
Q 3000 0 3000 825 
L 1125 825 
Q 800 825 525 750 
L 300 975 
L 3000 975 
L 3000 1775 
Q 2450 1700 2200 1525 
L 1950 1950 
Q 2275 1950 2675 2350 
Q 3075 2750 3325 3050 
Q 2400 2950 2150 2775 
L 1950 3175 
Q 2150 3150 2475 3575 
Q 2800 4000 2900 4225 
L 1450 4225 
Q 1125 4225 850 4150 
L 625 4375 
L 3100 4375 
Q 3050 4800 2675 5200 
L 2725 5250 
Q 3225 5050 3337 4912 
Q 3450 4775 3450 4700 
Q 3450 4550 3250 4375 
L 5025 4375 
L 5350 4675 
L 5775 4225 
L 3050 4225 
L 3375 3950 
L 3150 3900 
z
" transform="scale(0.015625)"/>
       <path id="SimSun-28" d="M 2900 5025 
Q 2325 4425 2037 3737 
Q 1750 3050 1750 2300 
Q 1750 1525 2037 850 
Q 2325 175 2900 -425 
L 2775 -550 
Q 2075 75 1725 787 
Q 1375 1500 1375 2300 
Q 1375 3075 1725 3787 
Q 2075 4500 2775 5150 
L 2900 5025 
z
" transform="scale(0.015625)"/>
       <path id="SimSun-4d" d="M 2800 450 
Q 2800 350 2862 300 
Q 2925 250 3025 250 
L 3125 250 
L 3125 100 
L 2050 100 
L 2050 250 
L 2175 250 
Q 2300 250 2350 300 
Q 2400 350 2400 450 
L 2400 3725 
L 2350 3725 
L 1500 100 
L 1350 100 
L 575 3650 
L 525 3650 
L 525 450 
Q 525 350 587 300 
Q 650 250 750 250 
L 825 250 
L 825 100 
L 75 100 
L 75 250 
L 150 250 
Q 275 250 325 300 
Q 375 350 375 450 
L 375 4025 
Q 375 4125 325 4175 
Q 275 4225 150 4225 
L 50 4225 
L 50 4375 
L 775 4375 
L 1500 1025 
L 1550 1025 
L 2325 4375 
L 3125 4375 
L 3125 4225 
L 3025 4225 
Q 2925 4225 2862 4175 
Q 2800 4125 2800 4025 
L 2800 450 
z
" transform="scale(0.015625)"/>
       <path id="SimSun-42" d="M 100 100 
L 100 250 
L 300 250 
Q 425 250 475 300 
Q 525 350 525 450 
L 525 4025 
Q 525 4125 475 4175 
Q 425 4225 300 4225 
L 150 4225 
L 150 4375 
L 1600 4375 
Q 2200 4375 2487 4137 
Q 2775 3900 2775 3400 
Q 2775 3050 2625 2825 
Q 2475 2600 2000 2425 
Q 2575 2250 2775 1925 
Q 2975 1600 2975 1200 
Q 2975 700 2625 400 
Q 2275 100 1675 100 
L 100 100 
z
M 1600 250 
Q 2025 250 2262 512 
Q 2500 775 2500 1250 
Q 2500 1800 2250 2062 
Q 2000 2325 1500 2325 
L 925 2325 
L 925 450 
Q 925 350 987 300 
Q 1050 250 1150 250 
L 1600 250 
z
M 2350 3400 
Q 2350 3850 2100 4037 
Q 1850 4225 1450 4225 
L 1150 4225 
Q 1050 4225 987 4175 
Q 925 4125 925 4025 
L 925 2475 
L 1575 2475 
Q 1850 2475 2100 2700 
Q 2350 2925 2350 3400 
z
" transform="scale(0.015625)"/>
       <path id="SimSun-29" d="M 275 5025 
L 400 5150 
Q 1100 4500 1450 3787 
Q 1800 3075 1800 2300 
Q 1800 1500 1450 787 
Q 1100 75 400 -550 
L 275 -425 
Q 850 175 1137 850 
Q 1425 1525 1425 2300 
Q 1425 3050 1137 3737 
Q 850 4425 275 5025 
z
" transform="scale(0.015625)"/>
      </defs>
      <use xlink:href="#SimSun-5185"/>
      <use xlink:href="#SimSun-5b58" x="100"/>
      <use xlink:href="#SimSun-4f7f" x="200"/>
      <use xlink:href="#SimSun-7528" x="300"/>
      <use xlink:href="#SimSun-7387" x="400"/>
      <use xlink:href="#SimSun-28" x="500"/>
      <use xlink:href="#SimSun-4d" x="550"/>
      <use xlink:href="#SimSun-42" x="600"/>
      <use xlink:href="#SimSun-29" x="650"/>
     </g>
    </g>
   </g>
   <g id="patch_9">
    <path d="M 90 640.8 
L 90 86.4 
" style="fill: none; stroke: #000000; stroke-width: 0.8; stroke-linejoin: miter; stroke-linecap: square"/>
   </g>
   <g id="patch_10">
    <path d="M 648 640.8 
L 648 86.4 
" style="fill: none; stroke: #000000; stroke-width: 0.8; stroke-linejoin: miter; stroke-linecap: square"/>
   </g>
   <g id="patch_11">
    <path d="M 90 640.8 
L 648 640.8 
" style="fill: none; stroke: #000000; stroke-width: 0.8; stroke-linejoin: miter; stroke-linecap: square"/>
   </g>
   <g id="patch_12">
    <path d="M 90 86.4 
L 648 86.4 
" style="fill: none; stroke: #000000; stroke-width: 0.8; stroke-linejoin: miter; stroke-linecap: square"/>
   </g>
  </g>
 </g>
 <defs>
  <clipPath id="p11e1837515">
   <rect x="90" y="86.4" width="558" height="554.4"/>
  </clipPath>
 </defs>
</svg>
